<svg width="17" height="17" viewBox="0 0 17 17" fill="none" xmlns="http://www.w3.org/2000/svg">
<path d="M9.92336 15.7979L10.0907 10.5932C10.1255 10.3954 10.2925 10.2209 10.5024 10.1899L15.7189 10.361C15.9172 10.396 16.0842 10.2215 16.1307 9.95773L16.2335 7.05288C16.2684 6.85509 16.0933 6.6883 15.829 6.64174L10.6124 6.47056C10.4142 6.43563 10.2392 6.26885 10.2079 6.05942L10.3752 0.854707C10.41 0.656916 10.235 0.490128 9.97065 0.443561L7.05919 0.338559C6.86092 0.303634 6.69391 0.47814 6.64745 0.741862L6.48017 5.94657C6.44533 6.14436 6.27831 6.31887 6.06844 6.34988L0.851895 6.17871C0.65363 6.14378 0.486613 6.31829 0.440157 6.58201L0.337271 9.48687C0.302429 9.68466 0.477474 9.85145 0.741826 9.89802L5.95837 10.0692C6.15663 10.1041 6.33168 10.2709 6.36292 10.4803L6.19561 15.685C6.16076 15.8828 6.33581 16.0496 6.60016 16.0962L9.51162 16.2012C9.7215 16.1702 9.88852 15.9957 9.92336 15.7979Z" fill="#FDD08D"/>
</svg>
